<svg width="13" height="12" viewBox="0 0 13 12" fill="none" xmlns="http://www.w3.org/2000/svg">
<path d="M8.14109 7.1426C8.89862 7.1426 9.62512 7.44352 10.1608 7.97917C10.6964 8.51482 10.9973 9.24132 10.9973 9.99885V10.5701C10.9973 10.8731 10.877 11.1637 10.6627 11.378C10.4485 11.5922 10.1579 11.7126 9.85484 11.7126H1.85734C1.55433 11.7126 1.26373 11.5922 1.04947 11.378C0.835214 11.1637 0.714844 10.8731 0.714844 10.5701V9.99885C0.714844 9.24132 1.01577 8.51482 1.55142 7.97917C2.08707 7.44352 2.81357 7.1426 3.57109 7.1426H8.14109ZM10.4261 3.7151C10.5776 3.7151 10.7229 3.77528 10.83 3.88241C10.9372 3.98954 10.9973 4.13484 10.9973 4.28635V4.8576H11.5686C11.7201 4.8576 11.8654 4.91778 11.9725 5.02491C12.0797 5.13204 12.1398 5.27734 12.1398 5.42885C12.1398 5.58035 12.0797 5.72565 11.9725 5.83278C11.8654 5.93991 11.7201 6.0001 11.5686 6.0001H10.9973V6.57135C10.9973 6.72285 10.9372 6.86815 10.83 6.97528C10.7229 7.08241 10.5776 7.1426 10.4261 7.1426C10.2746 7.1426 10.1293 7.08241 10.0222 6.97528C9.91503 6.86815 9.85484 6.72285 9.85484 6.57135V6.0001H9.28359C9.13209 6.0001 8.98679 5.93991 8.87966 5.83278C8.77253 5.72565 8.71234 5.58035 8.71234 5.42885C8.71234 5.27734 8.77253 5.13204 8.87966 5.02491C8.98679 4.91778 9.13209 4.8576 9.28359 4.8576H9.85484V4.28635C9.85484 4.13484 9.91503 3.98954 10.0222 3.88241C10.1293 3.77528 10.2746 3.7151 10.4261 3.7151ZM5.85609 0.287598C6.61362 0.287598 7.34012 0.588523 7.87577 1.12417C8.41142 1.65982 8.71234 2.38632 8.71234 3.14385C8.71234 3.90137 8.41142 4.62787 7.87577 5.16352C7.34012 5.69917 6.61362 6.0001 5.85609 6.0001C5.09857 6.0001 4.37207 5.69917 3.83642 5.16352C3.30077 4.62787 2.99984 3.90137 2.99984 3.14385C2.99984 2.38632 3.30077 1.65982 3.83642 1.12417C4.37207 0.588523 5.09857 0.287598 5.85609 0.287598Z" fill="#1E5DC0"/>
</svg>
