<svg width="30" height="30" viewBox="0 0 30 30" fill="none" xmlns="http://www.w3.org/2000/svg">
<path d="M29.2188 15C29.2188 23.0254 22.7129 29.5312 14.6875 29.5312C6.66209 29.5312 0.15625 23.0254 0.15625 15C0.15625 6.97459 6.66209 0.46875 14.6875 0.46875C22.7129 0.46875 29.2188 6.97459 29.2188 15ZM13.0067 22.6942L23.7879 11.9129C24.154 11.5468 24.154 10.9532 23.7879 10.5871L22.4621 9.26133C22.096 8.89518 21.5024 8.89518 21.1363 9.26133L12.3438 18.0538L8.23873 13.9488C7.87264 13.5827 7.27902 13.5827 6.91287 13.9488L5.58707 15.2746C5.22098 15.6407 5.22098 16.2343 5.58707 16.6004L11.6808 22.6941C12.047 23.0603 12.6405 23.0603 13.0067 22.6942Z" fill="#164285"/>
</svg>
