<svg width="21" height="18" viewBox="0 0 21 18" fill="none" xmlns="http://www.w3.org/2000/svg">
<path fill-rule="evenodd" clip-rule="evenodd" d="M4.916 1.767C4.21318 1.767 3.53914 2.0462 3.04217 2.54317C2.5452 3.04014 2.266 3.71418 2.266 4.417V13.249C2.266 13.9518 2.5452 14.6259 3.04217 15.1228C3.53914 15.6198 4.21318 15.899 4.916 15.899H6.377V1.767H4.916ZM4.916 0C3.7448 0 2.62158 0.465256 1.79342 1.29342C0.965256 2.12158 0.5 3.2448 0.5 4.416V13.249C0.499869 13.829 0.613995 14.4033 0.835861 14.9392C1.05773 15.4751 1.38299 15.9621 1.79306 16.3722C2.20314 16.7824 2.69 17.1078 3.22584 17.3298C3.76168 17.5517 4.336 17.666 4.916 17.666H16.084C16.6641 17.666 17.2385 17.5517 17.7744 17.3297C18.3103 17.1076 18.7972 16.7822 19.2073 16.3719C19.6174 15.9616 19.9426 15.4745 20.1644 14.9385C20.3862 14.4025 20.5003 13.8281 20.5 13.248V4.416C20.5 3.2448 20.0347 2.12158 19.2066 1.29342C18.3784 0.465256 17.2552 0 16.084 0H4.916ZM8.144 1.767V15.899H16.084C16.7868 15.899 17.4609 15.6198 17.9578 15.1228C18.4548 14.6259 18.734 13.9518 18.734 13.249V4.416C18.734 3.71318 18.4548 3.03914 17.9578 2.54217C17.4609 2.0452 16.7868 1.766 16.084 1.766H8.144V1.767Z" fill="#1E1E1E"/>
</svg>
