<svg width="13" height="14" viewBox="0 0 13 14" fill="none" xmlns="http://www.w3.org/2000/svg">
<path d="M8.12769 3.26416C8.12769 3.09546 8.07477 2.93212 7.97953 2.81162L5.90739 0.187441C5.81215 0.0669434 5.68303 0 5.54757 0H5.41846V3.4275H8.12769V3.26416ZM12.0857 8.24742L10.0601 5.66609C9.84636 5.39564 9.48019 5.58575 9.48019 5.96867V7.71187H8.12557V9.42562H9.48019V11.1715C9.48019 11.5544 9.84636 11.7445 10.0601 11.4741L12.0857 8.89008C12.2254 8.71335 12.2254 8.42415 12.0857 8.24742ZM4.06384 8.99719V8.14031C4.06384 7.90467 4.21624 7.71187 4.4025 7.71187H8.12769V4.28438H5.24913C4.96974 4.28438 4.74115 3.99518 4.74115 3.64172V0H0.507981C0.226475 0 0 0.286518 0 0.642656V13.0673C0 13.4235 0.226475 13.71 0.507981 13.71H7.61971C7.90122 13.71 8.12769 13.4235 8.12769 13.0673V9.42562H4.4025C4.21624 9.42562 4.06384 9.23283 4.06384 8.99719Z" fill="#1E5DC0"/>
</svg>
