<svg width="16" height="14" viewBox="0 0 16 14" fill="none" xmlns="http://www.w3.org/2000/svg">
<path d="M15.2688 6.81875L12.25 5.6875V2.29688C12.25 1.82813 11.9594 1.40938 11.5188 1.24375L8.39375 0.071878C8.14062 -0.024997 7.85938 -0.024997 7.60313 0.071878L4.47813 1.24375C4.0375 1.40938 3.74688 1.82813 3.74688 2.29688V5.6875L0.728125 6.81875C0.290625 6.98438 0 7.40313 0 7.87188V11.3125C0 11.7375 0.240625 12.1281 0.621875 12.3188L3.74688 13.8813C4.0625 14.0406 4.4375 14.0406 4.75313 13.8813L8 12.2563L11.2469 13.8813C11.5625 14.0406 11.9375 14.0406 12.2531 13.8813L15.3781 12.3188C15.7594 12.1281 16 11.7375 16 11.3125V7.87188C16 7.40313 15.7094 6.98438 15.2688 6.81875ZM11.1875 5.7125L8.53125 6.70938V4.57813L11.1875 3.42188V5.7125ZM4.8125 2.25313L8 1.05938L11.1875 2.25313V2.27188L8 3.56563L4.8125 2.27188V2.25313ZM7.4375 11.35L4.78125 12.6781V10.2063L7.4375 8.99375V11.35ZM7.4375 7.85L4.25 9.14375L1.0625 7.85V7.83125L4.25 6.6375L7.4375 7.83125V7.85ZM14.9375 11.35L12.2812 12.6781V10.2063L14.9375 8.99375V11.35ZM14.9375 7.85L11.75 9.14375L8.5625 7.85V7.83125L11.75 6.6375L14.9375 7.83125V7.85Z" fill="#1E1E1E" fill-opacity="0.933333"/>
</svg>
