<svg width="35" height="40" viewBox="0 0 35 40" fill="none" xmlns="http://www.w3.org/2000/svg">
<rect width="35" height="40" rx="2" fill="#164285"/>
<rect width="35" height="40" rx="2" stroke="#E5E7EB"/>
<g clip-path="url(#clip0_810_540)">
<path d="M20.5 22.8V18.2C20.5 17.565 21.015 17.05 21.65 17.05H26.25C26.885 17.05 27.4 17.565 27.4 18.2V22.8C27.4 23.435 26.885 23.95 26.25 23.95H21.65C21.015 23.95 20.5 23.435 20.5 22.8ZM10.15 15.9C9.51498 15.9 9 15.385 9 14.75V10.15C9 9.51498 9.51498 9 10.15 9H14.75C15.385 9 15.9 9.51498 15.9 10.15V13.5899L20.5014 16.2191C19.8165 16.618 19.35 17.3519 19.35 18.2V18.2101L15.3074 15.9H13.6V23.95H11.3V15.9H10.15ZM9 30.85V26.25C9 25.615 9.51498 25.1 10.15 25.1H14.75C15.385 25.1 15.9 25.615 15.9 26.25V30.85C15.9 31.485 15.385 32 14.75 32H10.15C9.51498 32 9 31.485 9 30.85Z" fill="white"/>
</g>
<defs>
<clipPath id="clip0_810_540">
<rect width="23" height="18.4" fill="white" transform="matrix(0 1 1 0 9 9)"/>
</clipPath>
</defs>
</svg>
