<svg width="67" height="75" viewBox="0 0 67 75" fill="none" xmlns="http://www.w3.org/2000/svg">
<path d="M41.875 45V30C41.875 27.9293 43.7502 26.25 46.0625 26.25H62.8125C65.1248 26.25 67 27.9293 67 30V45C67 47.0707 65.1248 48.75 62.8125 48.75H46.0625C43.7502 48.75 41.875 47.0707 41.875 45ZM4.1875 22.5C1.87521 22.5 0 20.8207 0 18.75V3.75C0 1.6793 1.87521 0 4.1875 0H20.9375C23.2498 0 25.125 1.6793 25.125 3.75V14.9672L41.8802 23.5406C39.3861 24.8414 37.6875 27.2344 37.6875 30V30.0328L22.9671 22.5H16.75V48.75H8.375V22.5H4.1875ZM0 71.25V56.25C0 54.1793 1.87521 52.5 4.1875 52.5H20.9375C23.2498 52.5 25.125 54.1793 25.125 56.25V71.25C25.125 73.3207 23.2498 75 20.9375 75H4.1875C1.87521 75 0 73.3207 0 71.25Z" fill="white"/>
</svg>
