<svg width="15" height="22" viewBox="0 0 15 22" fill="none" xmlns="http://www.w3.org/2000/svg">
<path d="M10.8939 10.0289L5.26894 8.67109C4.61789 8.51641 4.16477 8.01367 4.16477 7.45508C4.16477 6.75469 4.85227 6.1875 5.70123 6.1875H9.15435C9.78977 6.1875 10.4148 6.34648 10.9356 6.63867C11.2533 6.81484 11.6804 6.77187 11.9512 6.55273L13.7637 5.0918C14.1335 4.79531 14.0814 4.30117 13.67 4.03906C12.3939 3.21406 10.8002 2.7543 9.16477 2.75V0.6875C9.16477 0.309375 8.78977 0 8.33144 0H6.66477C6.20644 0 5.83144 0.309375 5.83144 0.6875V2.75H5.70123C2.38352 2.75 -0.283147 5.10039 0.0241442 7.88906C0.242894 9.86992 2.07623 11.4813 4.38873 12.0398L9.72727 13.3289C10.3783 13.4879 10.8314 13.9863 10.8314 14.5449C10.8314 15.2453 10.1439 15.8125 9.29498 15.8125H5.84185C5.20644 15.8125 4.58144 15.6535 4.0606 15.3613C3.74289 15.1852 3.31581 15.2281 3.04498 15.4473L1.23248 16.9082C0.862686 17.2047 0.914769 17.6988 1.32623 17.9609C2.60227 18.7859 4.19602 19.2457 5.83144 19.25V21.3125C5.83144 21.6906 6.20644 22 6.66477 22H8.33144C8.78977 22 9.16477 21.6906 9.16477 21.3125V19.2414C11.5919 19.2027 13.8679 18.0125 14.67 16.1176C15.7898 13.4707 13.9096 10.7551 10.8939 10.0289Z" fill="white"/>
</svg>
