<svg width="16" height="16" viewBox="0 0 16 16" fill="none" xmlns="http://www.w3.org/2000/svg">
<path d="M15.2307 9.86561L13.8994 9.09686C14.0338 8.37186 14.0338 7.62811 13.8994 6.90311L15.2307 6.13436C15.3838 6.04686 15.4525 5.86561 15.4025 5.69686C15.0557 4.58436 14.465 3.57811 13.6932 2.74061C13.5744 2.61249 13.3807 2.58124 13.2307 2.66874L11.8994 3.43749C11.34 2.95624 10.6963 2.58436 9.99941 2.34061V0.806237C9.99941 0.631236 9.87753 0.478112 9.70566 0.440612C8.55878 0.184362 7.38379 0.196862 6.29316 0.440612C6.12128 0.478112 5.99941 0.631236 5.99941 0.806237V2.34374C5.30566 2.59061 4.66191 2.96249 4.09941 3.44061L2.77128 2.67186C2.61816 2.58436 2.42753 2.61249 2.30878 2.74374C1.53691 3.57811 0.946285 4.58436 0.59941 5.69999C0.546285 5.86874 0.61816 6.04999 0.771285 6.13749L2.10254 6.90624C1.96816 7.63124 1.96816 8.37499 2.10254 9.09999L0.771285 9.86874C0.61816 9.95624 0.54941 10.1375 0.59941 10.3062C0.946285 11.4187 1.53691 12.425 2.30878 13.2625C2.42753 13.3906 2.62128 13.4219 2.77128 13.3344L4.10254 12.5656C4.66191 13.0469 5.30566 13.4187 6.00254 13.6625V15.2C6.00254 15.375 6.12441 15.5281 6.29629 15.5656C7.44316 15.8219 8.61816 15.8094 9.70879 15.5656C9.88066 15.5281 10.0025 15.375 10.0025 15.2V13.6625C10.6963 13.4156 11.34 13.0437 11.9025 12.5656L13.2338 13.3344C13.3869 13.4219 13.5775 13.3937 13.6963 13.2625C14.4682 12.4281 15.0588 11.4219 15.4057 10.3062C15.4525 10.1344 15.3838 9.95311 15.2307 9.86561ZM7.99941 10.5C6.62129 10.5 5.49941 9.37811 5.49941 7.99999C5.49941 6.62186 6.62129 5.49999 7.99941 5.49999C9.37753 5.49999 10.4994 6.62186 10.4994 7.99999C10.4994 9.37811 9.37753 10.5 7.99941 10.5Z" fill="#1E1E1E" fill-opacity="0.933333"/>
</svg>
