<svg width="16" height="13" viewBox="0 0 16 13" fill="none" xmlns="http://www.w3.org/2000/svg">
<path d="M0 3.50075V3.00075C0 2.58653 0.335781 2.25075 0.75 2.25075H12V0.750748C12 0.0830292 12.8093 -0.250565 13.2803 0.220404L15.7803 2.7204C16.0732 3.01331 16.0732 3.48819 15.7803 3.78106L13.2803 6.28106C12.8111 6.75019 12 6.42125 12 5.75075V4.25075H0.75C0.335781 4.25075 0 3.91497 0 3.50075ZM15.25 8.25075H4V6.75075C4 6.08469 3.19181 5.74825 2.71966 6.2204L0.219656 8.7204C-0.0732187 9.01331 -0.0732187 9.48818 0.219656 9.78106L2.71966 12.2811C3.18928 12.7507 4 12.4207 4 11.7507V10.2507H15.25C15.6642 10.2507 16 9.91497 16 9.50075V9.00075C16 8.58653 15.6642 8.25075 15.25 8.25075Z" fill="#7A7A7A"/>
</svg>
