<svg width="20" height="14" viewBox="0 0 20 14" fill="none" xmlns="http://www.w3.org/2000/svg">
<path d="M19.0781 9.66562C19.1594 9.225 19.1594 8.775 19.0781 8.33438L19.8844 7.86875C19.9781 7.81562 20.0187 7.70625 19.9875 7.60312C19.7781 6.92812 19.4188 6.31562 18.95 5.80937C18.8781 5.73125 18.7625 5.7125 18.6688 5.76562L17.8625 6.23125C17.5219 5.94062 17.1313 5.71563 16.7094 5.56562V4.63438C16.7094 4.52813 16.6344 4.43438 16.5312 4.4125C15.8344 4.25625 15.125 4.2625 14.4625 4.4125C14.3594 4.43438 14.2844 4.52813 14.2844 4.63438V5.56562C13.8625 5.71563 13.4719 5.94062 13.1313 6.23125L12.325 5.76562C12.2344 5.7125 12.1156 5.73125 12.0437 5.80937C11.575 6.31562 11.2156 6.92812 11.0063 7.60312C10.975 7.70625 11.0188 7.81562 11.1094 7.86875L11.9156 8.33438C11.8344 8.775 11.8344 9.225 11.9156 9.66562L11.1094 10.1313C11.0156 10.1844 10.975 10.2938 11.0063 10.3969C11.2156 11.0719 11.575 11.6813 12.0437 12.1906C12.1156 12.2687 12.2312 12.2875 12.325 12.2344L13.1313 11.7687C13.4719 12.0594 13.8625 12.2844 14.2844 12.4344V13.3656C14.2844 13.4719 14.3594 13.5656 14.4625 13.5875C15.1594 13.7437 15.8687 13.7375 16.5312 13.5875C16.6344 13.5656 16.7094 13.4719 16.7094 13.3656V12.4344C17.1313 12.2844 17.5219 12.0594 17.8625 11.7687L18.6688 12.2344C18.7594 12.2875 18.8781 12.2687 18.95 12.1906C19.4188 11.6844 19.7781 11.0719 19.9875 10.3969C20.0187 10.2938 19.975 10.1844 19.8844 10.1313L19.0781 9.66562ZM15.5 10.5156C14.6625 10.5156 13.9844 9.83438 13.9844 9C13.9844 8.16562 14.6656 7.48437 15.5 7.48437C16.3344 7.48437 17.0156 8.16562 17.0156 9C17.0156 9.83438 16.3375 10.5156 15.5 10.5156ZM3 6C4.10313 6 5 5.10312 5 4C5 2.89688 4.10313 2 3 2C1.89688 2 1 2.89688 1 4C1 5.10312 1.89688 6 3 6ZM10 7C10.0594 7 10.1156 6.98437 10.175 6.98125C10.4344 6.30312 10.8156 5.66563 11.3094 5.13125C11.5406 4.88125 11.8687 4.7375 12.2125 4.7375C12.4281 4.7375 12.6406 4.79375 12.825 4.90312L13.0719 5.04687C13.0969 5.03125 13.1219 5.01875 13.1469 5.00312C13.3656 4.54687 13.4969 4.04063 13.4969 3.50313C13.4969 1.56875 11.9312 0.00312495 9.99687 0.00312495C8.0625 0.00312495 6.5 1.56562 6.5 3.5C6.5 5.43438 8.06563 7 10 7ZM13.2875 13.0781C13.2156 13.0406 13.1438 12.9969 13.075 12.9562C12.8187 13.1062 12.5969 13.2625 12.2156 13.2625C11.875 13.2625 11.5469 13.1187 11.3125 12.8687C10.7406 12.25 10.3031 11.4969 10.0562 10.6938C9.72187 9.61563 10.8344 9.14062 10.8625 9.12187C10.8594 9.04062 10.8594 8.95938 10.8625 8.87812L10.6156 8.73437C10.4969 8.66562 10.3969 8.57812 10.3094 8.48125C10.2063 8.4875 10.1062 8.5 10.0031 8.5C9.23438 8.5 8.51562 8.3125 7.8625 8H7.60313C5.6125 8 4 9.6125 4 11.6V12.5C4 13.3281 4.67188 14 5.5 14H13.4812C13.3656 13.8125 13.2875 13.6 13.2875 13.3656V13.0781ZM5.40938 7.58125C5.04688 7.22187 4.55 7 4 7H2C0.896875 7 0 7.89687 0 9V10C0 10.5531 0.446875 11 1 11H3.05938C3.25625 9.51875 4.15 8.27188 5.40938 7.58125Z" fill="#1E1E1E" fill-opacity="0.933333"/>
</svg>
