<svg width="30" height="25" viewBox="0 0 30 25" fill="none" xmlns="http://www.w3.org/2000/svg">
<path d="M29.6624 21.7509C30.6237 23.3324 29.417 25.3093 27.4969 25.3093H2.50283C0.579025 25.3093 -0.62212 23.3293 0.337359 21.7509L12.8345 1.18563C13.7964 -0.396644 16.2054 -0.393777 17.1655 1.18563L29.6624 21.7509ZM15 17.499C13.6768 17.499 12.6042 18.5171 12.6042 19.7729C12.6042 21.0287 13.6768 22.0468 15 22.0468C16.3232 22.0468 17.3958 21.0287 17.3958 19.7729C17.3958 18.5171 16.3232 17.499 15 17.499ZM12.7254 9.3256L13.1117 16.0484C13.1298 16.363 13.4039 16.6093 13.7358 16.6093H16.2642C16.5962 16.6093 16.8702 16.363 16.8883 16.0484L17.2746 9.3256C17.2942 8.9858 17.0091 8.70008 16.6506 8.70008H13.3494C12.9908 8.70008 12.7058 8.9858 12.7254 9.3256Z" fill="#164285"/>
</svg>
