<svg width="30" height="30" viewBox="0 0 30 30" fill="none" xmlns="http://www.w3.org/2000/svg">
<path d="M14.6875 0.46875C6.66016 0.46875 0.15625 6.97266 0.15625 15C0.15625 23.0273 6.66016 29.5312 14.6875 29.5312C22.7148 29.5312 29.2188 23.0273 29.2188 15C29.2188 6.97266 22.7148 0.46875 14.6875 0.46875ZM21.8125 18.8145C22.0879 19.0898 22.0879 19.5352 21.8125 19.8105L19.4922 22.125C19.2168 22.4004 18.7715 22.4004 18.4961 22.125L14.6875 18.2812L10.873 22.125C10.5977 22.4004 10.1523 22.4004 9.87695 22.125L7.5625 19.8047C7.28711 19.5293 7.28711 19.084 7.5625 18.8086L11.4062 15L7.5625 11.1855C7.28711 10.9102 7.28711 10.4648 7.5625 10.1895L9.88281 7.86914C10.1582 7.59375 10.6035 7.59375 10.8789 7.86914L14.6875 11.7188L18.502 7.875C18.7773 7.59961 19.2227 7.59961 19.498 7.875L21.8184 10.1953C22.0938 10.4707 22.0938 10.916 21.8184 11.1914L17.9688 15L21.8125 18.8145Z" fill="#164285"/>
</svg>
